<?xml version="1.0" standalone="no"?><!DOCTYPE svg PUBLIC "-//W3C//DTD SVG 1.1//EN" "http://www.w3.org/Graphics/SVG/1.1/DTD/svg11.dtd"><svg t="1583140656370" class="icon" viewBox="0 0 1024 1024" version="1.1" xmlns="http://www.w3.org/2000/svg" p-id="2916" xmlns:xlink="http://www.w3.org/1999/xlink" width="200" height="200"><defs><style type="text/css"></style></defs><path d="M750.8992 964.3008c-41.6768 0-75.6736-35.4304-75.6736-78.9504 0-43.4176 33.9968-78.7456 75.6736-78.7456s75.6736 35.328 75.6736 78.7456c0 43.52-33.9968 78.9504-75.6736 78.9504z m0-106.3936c-13.7216 0-24.4736 12.0832-24.4736 27.5456 0 15.4624 10.752 27.7504 24.4736 27.7504 13.312 0 24.4736-12.6976 24.4736-27.7504 0-14.9504-11.1616-27.5456-24.4736-27.5456zM405.1968 964.3008c-42.0864 0-75.3664-34.6112-75.6736-78.7456 0-43.6224 33.9968-78.9504 75.6736-78.9504s75.6736 35.328 75.6736 78.7456c0 43.52-33.9968 78.9504-75.6736 78.9504z m0-106.3936c-13.7216 0-24.4736 12.0832-24.4736 27.5456 0.1024 15.36 10.8544 27.7504 24.4736 27.7504 13.5168 0 24.4736-12.3904 24.4736-27.7504 0-15.2576-10.9568-27.5456-24.4736-27.5456zM414.9248 802.0992c-61.2352 0-109.3632-48.4352-125.8496-126.1568-2.9696-14.0288-19.1488-100.7616-38.0928-201.8304-26.9312-143.4624-63.6928-339.968-67.4816-354.5088-1.9456-3.8912-9.4208-8.4992-14.5408-8.4992H85.2992a25.6 25.6 0 0 1 0-51.2h83.6608c26.112 0 52.0192 17.8176 62.8736 43.3152 5.12 18.6368 33.1776 167.936 69.4272 361.472 18.8416 100.6592 35.0208 186.88 37.888 200.704 10.752 51.2 37.1712 82.7392 71.168 85.2992a21.7088 21.7088 0 0 1 4.5056-0.4096h417.0752a25.6 25.6 0 0 1 0 51.2h-411.648a22.9376 22.9376 0 0 1-5.3248 0.6144z" fill="#4D5573" p-id="2917"></path><path d="M745.5744 703.488H327.168a25.6 25.6 0 0 1 0-51.2h418.4064c29.0816 0 33.3824-7.5776 41.984-22.9376l4.4032-7.168c6.8608-11.4688 47.3088-108.032 74.0352-171.8272 17.7152-42.3936 33.3824-79.9744 40.448-95.6416 7.4752-20.6848 8.8064-38.7072 2.8672-47.5136-2.8672-4.096-7.7824-8.4992-20.48-8.4992H253.7472a25.6 25.6 0 0 1 0-51.2H888.832c26.7264 0 48.4352 10.6496 62.5664 30.6176 16.1792 24.1664 16.7936 56.1152 2.4576 95.6416-7.68 17.3056-23.1424 54.4768-40.6528 96.3584-41.5744 99.4304-69.5296 165.5808-77.4144 178.688l-4.4032 7.168c-13.2096 23.3472-31.4368 47.5136-85.8112 47.5136z" fill="#4D5573" p-id="2918"></path><path d="M533.0944 611.84h-1.3312a26.4192 26.4192 0 0 1-18.1248-8.9088l-106.496-124.3136a25.6 25.6 0 1 1 38.912-33.3824l88.9856 103.8336 213.1968-202.5472a25.6 25.6 0 1 1 35.1232 37.2736L550.7072 604.7744a25.6 25.6 0 0 1-17.6128 7.0656z" fill="#4D5573" p-id="2919"></path></svg>