<?xml version="1.0" standalone="no"?><!DOCTYPE svg PUBLIC "-//W3C//DTD SVG 1.1//EN" "http://www.w3.org/Graphics/SVG/1.1/DTD/svg11.dtd"><svg t="1583141078097" class="icon" viewBox="0 0 1024 1024" version="1.1" xmlns="http://www.w3.org/2000/svg" p-id="3725" xmlns:xlink="http://www.w3.org/1999/xlink" width="200" height="200"><defs><style type="text/css"></style></defs><path d="M386.5 477H110.7c-47.5 0-86.2-38.7-86.2-86.2V115.1c0-47.5 38.7-86.2 86.2-86.2h275.7c47.5 0 86.2 38.7 86.2 86.2v275.7c-0.1 47.6-38.7 86.2-86.1 86.2zM110.7 68.9c-25.5 0-46.2 20.7-46.2 46.2v275.7c0 25.5 20.7 46.2 46.2 46.2h275.7c25.4 0 46.1-20.8 46.2-46.3V115.1c0-25.5-20.7-46.2-46.2-46.2H110.7zM917.5 477H641.8c-47.5 0-86.2-38.7-86.2-86.2V115.1c0-47.5 38.7-86.2 86.2-86.2h275.7c47.5 0 86.2 38.7 86.2 86.2v275.7c0 47.6-38.6 86.2-86.2 86.2zM641.8 68.9c-25.5 0-46.2 20.7-46.2 46.2v275.7c0 25.5 20.7 46.2 46.2 46.2h275.7c25.5 0 46.2-20.7 46.2-46.2V115.1c0-25.5-20.7-46.2-46.2-46.2H641.8zM386.5 990.8H110.7c-47.5 0-86.2-38.7-86.2-86.2V628.8c0-47.5 38.7-86.2 86.2-86.2h275.7c47.5 0 86.2 38.7 86.2 86.2v275.7c-0.1 47.6-38.7 86.3-86.1 86.3zM110.7 582.6c-25.5 0-46.2 20.7-46.2 46.2v275.7c0 25.5 20.7 46.2 46.2 46.2h275.7c25.4 0 46.1-20.8 46.2-46.3V628.8c0-25.5-20.7-46.2-46.2-46.2H110.7zM917.5 990.8H641.8c-47.5 0-86.2-38.7-86.2-86.2V628.8c0-47.5 38.7-86.2 86.2-86.2h275.7c47.5 0 86.2 38.7 86.2 86.2v275.7c0 47.6-38.6 86.3-86.2 86.3zM641.8 582.6c-25.5 0-46.2 20.7-46.2 46.2v275.7c0 25.5 20.7 46.2 46.2 46.2h275.7c25.5 0 46.2-20.7 46.2-46.2V628.8c0-25.5-20.7-46.2-46.2-46.2H641.8z" fill="#BFCBD9" p-id="3726"></path></svg>