<?xml version="1.0" standalone="no"?><!DOCTYPE svg PUBLIC "-//W3C//DTD SVG 1.1//EN" "http://www.w3.org/Graphics/SVG/1.1/DTD/svg11.dtd"><svg t="1581424701183" class="icon" viewBox="0 0 1024 1024" version="1.1" xmlns="http://www.w3.org/2000/svg" p-id="9630" xmlns:xlink="http://www.w3.org/1999/xlink" width="200" height="200"><defs><style type="text/css"></style></defs><path d="M966.4 883.2h-64V473.6v-6.4-6.4c0-6.4-6.4-12.8-6.4-12.8l-147.2-147.2V153.6c0-19.2-12.8-32-32-32s-32 12.8-32 32v83.2L537.6 89.6c-12.8-12.8-32-12.8-44.8 0L128 448c-6.4 6.4-6.4 12.8-6.4 19.2V889.6h-64c-19.2 0-32 12.8-32 32s12.8 32 32 32h915.2c19.2 0 32-12.8 32-32s-19.2-38.4-38.4-38.4zM512 153.6l185.6 185.6 102.4 102.4h-576L512 153.6z m332.8 729.6H179.2V505.6h659.2v377.6z" p-id="9631"></path><path d="M512 326.4m-64 0a64 64 0 1 0 128 0 64 64 0 1 0-128 0Z" p-id="9632"></path></svg>