<?xml version="1.0" standalone="no"?><!DOCTYPE svg PUBLIC "-//W3C//DTD SVG 1.1//EN" "http://www.w3.org/Graphics/SVG/1.1/DTD/svg11.dtd"><svg t="1583140591611" class="icon" viewBox="0 0 1024 1024" version="1.1" xmlns="http://www.w3.org/2000/svg" p-id="2656" xmlns:xlink="http://www.w3.org/1999/xlink" width="200" height="200"><defs><style type="text/css"></style></defs><path d="M959.93649312 50.09429187a52.28984531 52.28984531 0 0 0-48.75070781-5.29058812L512.00010875 204.51179562 112.81443219 44.80370375A52.35024 52.35024 0 0 0 41.06537281 93.42154343v669.76659938a52.3743975 52.3743975 0 0 0 32.85478782 48.59368125L491.61081406 978.87016343s8.588145 2.75400469 10.17048939 3.06805782a51.69797531 51.69797531 0 0 0 20.34097874 0c1.58234438-0.31405312 10.17048938-3.17676844 10.17048937-3.17676844l417.67857375-167.05210312a52.31400281 52.31400281 0 0 0 32.95142063-48.59368125V93.42154343a52.33816031 52.33816031 0 0 0-22.95003656-43.32725155z m-28.20438656 711.57190125l-380.48743687 151.50647344V262.37004406l380.48743687-151.50647344z m-72.41340281-214.58283562l-209.34056344 83.81594625v56.49332531l209.35264314-83.79178875z m0-217.36099781L649.97814031 413.45375375v54.75395437l209.35264312-83.71931531zM480.38945375 916.48230311L97.18425031 764.45643406V113.62965406l383.20520344 152.11042125zM372.02904781 424.96500875l-209.34056344-83.81594719v56.51748375l209.34056344 83.8038675z m0 219.1124475l-209.35264312-83.70723562v54.72979592l209.35264312 83.74347283z m0 0" p-id="2657"></path><path d="M512.00010875 992a62.66567719 62.66567719 0 0 1-11.92194-1.20789655c-1.73937094-0.33821063-7.05411655-1.99302937-11.20928062-3.33379501l-0.60394782-0.21742125L70.55012937 820.16462656A61.17996375 61.17996375 0 0 1 32.00614812 763.16398438V93.42154343A61.40946469 61.40946469 0 0 1 116.16030594 36.384665l395.82772405 158.36732625L907.81575312 36.384665a61.42154343 61.42154343 0 0 1 84.1662375 57.03687845v669.75451968a61.13164781 61.13164781 0 0 1-38.65269187 57.00064218l-417.93223219 167.08834031-0.25365844 0.08455219c-6.03948281 2.02926656-9.868515 3.18884719-11.29383375 3.47874281a62.24291344 62.24291344 0 0 1-11.84946562 1.17165938z m-17.29707937-21.65758687c3.62368969 1.20789655 7.99627594 2.50034625 8.93843437 2.71776749a42.81993562 42.81993562 0 0 0 16.65689438 0c1.06294875-0.26573719 5.35098188-1.64273906 8.89011937-2.81439843l417.42491531-166.89507656a43.09775156 43.09775156 0 0 0 27.26222719-40.18672125V93.42154343a43.24269938 43.24269938 0 0 0-19.02437156-35.83829249 43.13398875 43.13398875 0 0 0-40.29543187-4.36050751L512.00010875 214.27160094 109.44440094 53.21066469A43.29101531 43.29101531 0 0 0 50.1245975 93.42154343v669.76659938a43.13398875 43.13398875 0 0 0 27.17767406 40.18672032z m-5.25435094-40.52493094L88.17334156 770.64086469v-670.38262688l401.27533688 159.28532813zM106.29179094 758.30823969l365.03843812 144.82680562V271.8520325L106.29179094 126.96483219z m435.89365406 168.15128906V256.23392938l398.60588625-158.71761657v670.285995z m18.11844937-657.98960625v631.31924906l362.3689875-144.27117281V124.22290719zM381.10035125 712.22698438l-227.47109156-91.00293188v-74.23732687l227.47109156 90.94253718z m-209.35264219-103.2630825l191.23419282 76.49609249V650.20149219l-191.23419282-76.4477775z m469.15912781 91.80014343v-76.00085625l227.47109157-91.06332656v76.02501375z m18.11844938-63.75278437v36.99787406l191.23419281-76.54440938v-36.99787312zM381.10035125 494.86598656l-227.47109156-91.06332656v-76.0370925l227.47109156 91.06332656z m-209.35264219-103.32347719l191.23419282 76.55648813V431.08904469l-191.23419282-76.55648814z m469.17120657 90.04869282v-74.27356313l227.45901281-90.96669468v74.26148437z m18.11844937-62.00133375v35.23434469l191.23419375-76.471935v-35.23434469z" p-id="2658"></path></svg>